<svg width="46" height="46" viewBox="0 0 46 46" fill="none" xmlns="http://www.w3.org/2000/svg">
<path d="M45.9067 29.522C45.8081 29.3696 45.6577 29.2581 45.4832 29.2081C45.3088 29.1582 45.1221 29.1733 44.9579 29.2506C43.5353 30.064 42.4514 29.1829 40.5549 27.56C39.1992 26.1942 37.5221 25.1915 35.678 24.6443C34.7451 24.479 33.7853 24.561 32.894 24.8822C32.0027 25.2034 31.2109 25.7525 30.5974 26.4751C30.2617 26.4188 29.9212 26.3962 29.581 26.4074H29.5135C28.6618 26.41 27.8158 26.5473 27.007 26.8142C26.3263 25.4984 25.4593 24.2879 24.4329 23.2202C25.217 22.8388 25.8487 22.2023 26.2246 21.4149C26.6005 20.6275 26.6983 19.7357 26.5022 18.8854C26.3061 18.035 25.8276 17.2765 25.1449 16.7337C24.4623 16.1908 23.6158 15.8959 22.744 15.8971C21.8755 15.8917 21.0315 16.1851 20.3532 16.7282C19.675 17.2713 19.2038 18.0311 19.0185 18.8805C18.3836 18.5637 17.7273 18.2919 17.0544 18.067C17.3656 17.5949 17.705 17.1419 18.0707 16.7106C18.548 16.2597 18.8898 15.6843 19.0574 15.0492C19.2251 14.4141 19.212 13.7447 19.0195 13.1167C18.9398 12.821 18.8016 12.5444 18.6131 12.3032C18.9091 11.6311 19.0676 10.9064 19.0792 10.172C19.0908 9.43756 18.9553 8.70824 18.6807 8.02709C19.3535 7.16551 19.8381 6.1722 20.1033 5.11137C20.1256 5.02649 20.1309 4.93805 20.119 4.8511C20.1071 4.76416 20.0782 4.68041 20.034 4.60464C19.9897 4.52888 19.931 4.46257 19.8612 4.40952C19.7914 4.35646 19.7118 4.31769 19.627 4.29543C19.5422 4.27316 19.4538 4.26783 19.367 4.27975C19.2801 4.29166 19.1964 4.32058 19.1207 4.36486C19.045 4.40914 18.9788 4.46791 18.9258 4.53781C18.8728 4.60771 18.8341 4.68738 18.8118 4.77226C18.6436 5.47687 18.3451 6.14371 17.9316 6.73828C17.5053 6.16227 16.8725 5.7741 16.1662 5.65533C14.066 5.45644 13.0507 6.33355 12.7795 7.28225C12.6546 7.71727 12.6804 8.18178 12.8526 8.60028C13.0249 9.01878 13.3335 9.36666 13.7282 9.58737C14.1654 9.81695 14.6495 9.94249 15.143 9.95421C15.6365 9.96594 16.126 9.86355 16.5735 9.655C16.9404 9.50256 17.2829 9.29682 17.5899 9.04441C17.7597 9.73485 17.7597 10.4562 17.5899 11.1467C17.1719 10.8752 16.7149 10.6693 16.2348 10.5361C15.735 10.4124 15.2108 10.4293 14.72 10.5847C14.2292 10.7402 13.7908 11.0282 13.4531 11.4172C13.2253 11.6703 13.068 11.9789 12.9967 12.312C12.9254 12.6452 12.9426 12.9912 13.0467 13.3156C13.1856 13.6959 13.421 14.0335 13.7299 14.2951C14.0388 14.5567 14.4104 14.7332 14.8081 14.8072C15.3586 14.8882 15.9208 14.8174 16.434 14.6024C16.9473 14.3874 17.3922 14.0364 17.721 13.587C17.8051 13.9765 17.7869 14.3811 17.6682 14.7614C17.5494 15.1418 17.3342 15.4847 17.0435 15.7569C16.4999 16.3346 16.0228 16.9714 15.6208 17.6553C15.1273 17.5797 14.6296 17.5345 14.1306 17.5201C12.835 17.4878 11.5755 17.95 10.6078 18.8129C10.1763 19.253 9.85174 19.7865 9.65899 20.3721L0.115731 43.8291C0.0206531 44.0711 -0.016643 44.332 0.00681432 44.591C0.0302717 44.85 0.113834 45.0999 0.250842 45.3208C0.38837 45.5367 0.579909 45.7129 0.806459 45.8319C1.03301 45.9509 1.28669 46.0085 1.54235 45.999C1.75156 45.9866 1.95745 45.9409 2.15234 45.8638L16.6481 39.8971L25.5217 36.2355C26.1068 36.0426 26.6398 35.7177 27.0795 35.2859C28.7048 33.6589 28.7684 30.9461 27.5534 28.0264C28.1674 27.8368 28.8074 27.7452 29.4499 27.7549H29.6486C29.1893 28.5547 28.9823 29.4748 29.0549 30.3945C29.1274 31.3141 29.476 32.1904 30.0549 32.9081C30.3332 33.2278 30.6767 33.484 31.0623 33.6595C31.4479 33.835 31.8666 33.9257 32.2902 33.9255C32.96 33.9183 33.6064 33.6786 34.1192 33.2472C35.2031 32.2975 35.7445 30.4628 34.2543 28.5733C33.6686 27.8249 32.8982 27.2423 32.019 26.8828C32.4651 26.4867 32.9977 26.2007 33.5741 26.0477C34.1505 25.8947 34.7546 25.879 35.3382 26.0017C36.9508 26.4956 38.4182 27.3772 39.6121 28.5694C41.4411 30.1287 43.27 31.6879 45.5729 30.4001C45.661 30.3758 45.7421 30.331 45.8097 30.2694C45.8773 30.2078 45.9294 30.1312 45.9619 30.0457C45.9944 29.9602 46.0064 29.8682 45.9968 29.7773C45.9872 29.6863 45.9563 29.5989 45.9067 29.522ZM16.1026 8.43978C15.8529 8.57435 15.5736 8.64479 15.29 8.64479C15.0063 8.64479 14.7271 8.57435 14.4773 8.43978C14.3477 8.36908 14.2445 8.25808 14.1834 8.12354C14.1223 7.98901 14.1065 7.83822 14.1385 7.69395C14.2737 7.35484 14.68 7.01574 15.6963 7.01574H16.1026C16.3147 7.0621 16.5147 7.15243 16.6897 7.28089C16.8648 7.40935 17.011 7.57309 17.119 7.76157C16.8305 8.05418 16.4844 8.28346 16.1026 8.43481V8.43978ZM16.9153 12.7159C16.3739 13.3941 15.7639 13.7332 15.2264 13.597C15.0601 13.5683 14.904 13.497 14.7734 13.39C14.6429 13.283 14.5422 13.1439 14.4813 12.9864C14.4508 12.8925 14.4473 12.7918 14.4712 12.696C14.4951 12.6002 14.5454 12.513 14.6164 12.4444C14.7473 12.2858 14.9135 12.1602 15.1018 12.0778C15.2901 11.9954 15.4951 11.9585 15.7003 11.9701C15.8392 11.9593 15.9786 11.9825 16.1066 12.0377C16.4886 12.1216 16.8402 12.3091 17.1229 12.5797C16.9829 12.5707 16.9153 12.6383 16.9153 12.707V12.7159ZM22.8086 17.2585C23.4383 17.2579 24.0449 17.4967 24.5054 17.9267C24.9659 18.3567 25.246 18.9458 25.2891 19.5747C25.3321 20.2036 25.1349 20.8254 24.7372 21.3143C24.3396 21.8032 23.7713 22.1226 23.1473 22.2079C23.0122 22.2079 22.9486 22.2755 22.8086 22.2755C22.6476 22.2864 22.4862 22.2634 22.3347 22.2079H22.1996C22.0644 22.2079 22.0009 22.1403 21.8608 22.0726C21.7932 22.0726 21.7932 22.005 21.7257 22.005C21.6581 21.9374 21.527 21.9374 21.4545 21.8698C21.3819 21.8022 21.3193 21.8022 21.3193 21.7345C21.2518 21.6669 21.1842 21.6669 21.1206 21.5993L20.922 21.4004C20.922 21.3328 20.8544 21.3328 20.8544 21.2652C20.7868 21.1299 20.7193 21.0663 20.6557 20.926C20.5253 20.6462 20.434 20.3498 20.3845 20.045V19.8461C20.3665 19.5146 20.4157 19.183 20.5289 18.871C20.6422 18.5591 20.8173 18.2733 21.0438 18.0308C21.2702 17.7882 21.5432 17.594 21.8465 17.4598C22.1497 17.3256 22.477 17.2541 22.8086 17.2496V17.2585ZM15.0188 32.573C15.0863 32.6406 15.1539 32.7083 15.2175 32.7083C15.4887 32.9071 15.7589 33.1826 16.0301 33.3865L16.1652 33.5217C16.4364 33.7206 16.6391 33.8608 16.9103 34.0637C16.9779 34.1313 17.0454 34.1313 17.0454 34.1989C17.3167 34.3978 17.5869 34.538 17.8581 34.7409C17.9257 34.8085 17.9932 34.8085 18.0568 34.8761C18.328 35.0114 18.5982 35.2152 18.8694 35.3505H18.9479C19.2191 35.4857 19.4894 35.622 19.8281 35.7572C19.8371 35.7571 19.8459 35.7587 19.8542 35.7621C19.8624 35.7654 19.8699 35.7704 19.8762 35.7767C19.8825 35.783 19.8875 35.7905 19.8908 35.7988C19.8942 35.8071 19.8958 35.8159 19.8957 35.8248C13.9349 35.1466 9.32817 31.8918 7.97407 28.5017L8.65162 26.8112C9.62832 28.1587 10.9344 29.2325 12.4447 29.9298C12.9926 30.6407 13.5807 31.3197 14.2061 31.9634C14.4928 32.1446 14.7645 32.3484 15.0188 32.573ZM16.3739 38.6073C13.5921 38.2682 7.43263 37.048 6.00998 33.115L7.225 30.061C9.52786 34.0617 14.8111 36.5021 20.0278 37.1127L16.3739 38.6073ZM11.2933 40.7096C8.78673 40.5107 5.67121 39.557 4.58734 36.5737L5.33244 34.8105C7.09386 37.6586 10.8194 38.9464 14.0024 39.6246L11.2933 40.7096ZM6.75508 42.5403C4.65489 42.5403 3.16469 41.6593 2.89446 40.7096L3.91078 38.2682C4.47947 39.1383 5.21568 39.8862 6.07642 40.4683C6.93715 41.0504 7.90514 41.4549 8.92383 41.6583L6.75508 42.5403ZM10.6833 27.0777C10.0991 26.5355 9.61717 25.8924 9.26061 25.1793L9.66694 24.2296C9.88412 25.2181 10.2256 26.1751 10.6833 27.0777ZM1.67448 44.6426C1.53937 44.7102 1.47579 44.6426 1.40327 44.575C1.33074 44.5074 1.40327 44.3761 1.40327 44.3761L2.28348 42.2738C2.86538 42.8727 3.58718 43.317 4.38367 43.5666L1.67448 44.6426ZM26.1953 34.3372C25.8879 34.6398 25.5179 34.8713 25.1114 35.0154C24.6277 35.1571 24.1252 35.2242 23.6212 35.2143C21.3859 35.2143 18.6082 33.9215 16.1702 31.8242C16.1026 31.7566 15.9715 31.6889 15.899 31.5527C15.6278 31.3538 15.4251 31.0784 15.1539 30.8745L14.4773 30.2003C14.4098 30.1326 14.3422 30.0014 14.2786 29.9288C14.1268 29.7855 13.9906 29.6265 13.8723 29.4544C13.8034 29.3257 13.7115 29.2108 13.6011 29.1153C13.466 28.9801 13.4024 28.8438 13.2623 28.7086C13.1948 28.5733 13.1272 28.5097 13.0636 28.3695C13 28.2293 12.8649 28.098 12.7924 27.9628C12.7199 27.8275 12.6573 27.7639 12.5937 27.6236C12.4783 27.4812 12.3867 27.321 12.3225 27.1493C12.2549 27.0817 12.2549 27.014 12.1874 26.9504C12.0523 26.6789 11.9162 26.4761 11.781 26.2046C11.7739 26.1533 11.7502 26.1058 11.7135 26.0693C11.6459 25.8704 11.5148 25.6626 11.4423 25.4587C11.4423 25.3911 11.3747 25.3235 11.3747 25.2598C11.3072 25.061 11.2396 24.9207 11.176 24.7179C11.176 24.6503 11.1085 24.5826 11.1085 24.519C11.0395 24.3452 10.994 24.1629 10.9734 23.977C10.9734 23.9094 10.9734 23.9094 10.9058 23.8418C10.8382 23.6429 10.8382 23.435 10.7707 23.2312V23.1636C10.7024 22.7353 10.7024 22.299 10.7707 21.8708V21.8032C10.7707 21.6679 10.8382 21.464 10.8382 21.3288C10.8382 21.2612 10.9058 21.1936 10.9058 21.1299C11.0282 20.6376 11.2864 20.1896 11.6509 19.8371C11.9861 19.5262 12.3816 19.2876 12.8127 19.136C13.2439 18.9844 13.7016 18.9232 14.1574 18.9561C14.4301 18.9448 14.703 18.9676 14.9701 19.0237C14.5753 19.8289 14.3449 20.7049 14.2925 21.6003C14.287 21.6908 14.3008 21.7814 14.3329 21.8662C14.365 21.951 14.4147 22.028 14.4787 22.0921C14.5428 22.1562 14.6197 22.206 14.7044 22.2381C14.7891 22.2703 14.8797 22.284 14.9701 22.2785C15.1497 22.2782 15.3219 22.2067 15.4489 22.0796C15.5759 21.9524 15.6474 21.7801 15.6476 21.6003C15.719 20.7731 15.949 19.9675 16.3252 19.2275C17.2446 19.4938 18.126 19.8772 18.9479 20.3682C19.0771 21.0321 19.355 21.658 19.7606 22.1989L19.8281 22.2666C19.9633 22.4018 20.0268 22.538 20.1669 22.6057C20.2345 22.6057 20.2345 22.6733 20.302 22.6733C20.4207 22.7867 20.5582 22.8785 20.7084 22.9448C20.7596 22.9519 20.807 22.9757 20.8435 23.0124C20.996 23.0909 21.1545 23.1574 21.3174 23.2113C21.3686 23.2184 21.416 23.2422 21.4525 23.2789C21.6236 23.3556 21.8069 23.4014 21.9939 23.4142H22.127C22.3257 23.4142 22.5334 23.4818 22.737 23.4818H22.9357C24.0211 24.5813 24.9344 25.8385 25.6449 27.211C23.8714 28.0052 22.3319 29.2429 21.1743 30.8049C21.1184 30.8759 21.0772 30.9574 21.0532 31.0446C21.0292 31.1318 21.0228 31.2229 21.0346 31.3126C21.0463 31.4023 21.0758 31.4887 21.1214 31.5668C21.1669 31.6449 21.2276 31.7131 21.2999 31.7674C21.3722 31.8216 21.4546 31.8609 21.5423 31.8828C21.63 31.9047 21.7211 31.9088 21.8104 31.8949C21.8997 31.881 21.9853 31.8494 22.0622 31.8019C22.1391 31.7544 22.2057 31.692 22.2582 31.6183C23.3253 30.2611 24.6937 29.1716 26.2549 28.4361C27.3467 30.9461 27.4143 33.1836 26.1953 34.3372ZM33.3075 29.4554C34.3239 30.7482 33.9851 31.8282 33.3751 32.3035C33.2151 32.4432 33.0275 32.5476 32.8245 32.61C32.6216 32.6724 32.4078 32.6914 32.1971 32.6658C31.9863 32.6402 31.7833 32.5706 31.6011 32.4614C31.419 32.3522 31.2618 32.2059 31.1398 32.032C30.7246 31.4923 30.4884 30.8361 30.4641 30.1553C30.4399 29.4745 30.6289 28.8032 31.0047 28.2352C31.0722 28.1676 31.0722 28.1 31.1398 28.0363C31.9892 28.2784 32.7451 28.7729 33.3075 29.4544V29.4554ZM39.6747 13.9958C40.1435 13.9958 40.6018 13.8566 40.9916 13.5959C41.3814 13.3352 41.6852 12.9646 41.8647 12.531C42.0441 12.0975 42.091 11.6204 41.9995 11.1601C41.9081 10.6998 41.6823 10.2771 41.3508 9.94522C41.0193 9.61338 40.5969 9.3874 40.1371 9.29585C39.6773 9.20429 39.2007 9.25128 38.7676 9.43087C38.3344 9.61046 37.9642 9.91458 37.7038 10.3048C37.4433 10.695 37.3043 11.1537 37.3043 11.623C37.3025 11.935 37.3627 12.2443 37.4812 12.5329C37.5998 12.8215 37.7743 13.0837 37.9948 13.3043C38.2152 13.5249 38.4773 13.6995 38.7656 13.818C39.054 13.9365 39.363 13.9966 39.6747 13.9948V13.9958ZM39.6747 10.6057C39.8757 10.6057 40.0722 10.6654 40.2393 10.7771C40.4064 10.8889 40.5367 11.0478 40.6136 11.2337C40.6906 11.4196 40.7107 11.6241 40.6715 11.8215C40.6323 12.0188 40.5355 12.2001 40.3933 12.3424C40.2512 12.4846 40.0701 12.5815 39.873 12.6208C39.6758 12.66 39.4715 12.6399 39.2857 12.5629C39.1 12.4859 38.9413 12.3555 38.8296 12.1882C38.718 12.0209 38.6584 11.8242 38.6584 11.623C38.6551 11.4885 38.6791 11.3547 38.7291 11.2297C38.779 11.1048 38.8537 10.9912 38.9487 10.896C39.0437 10.8008 39.1571 10.7259 39.2818 10.6758C39.4066 10.6258 39.5403 10.6016 39.6747 10.6047V10.6057ZM23.0112 26.132C23.0112 25.7699 22.904 25.4159 22.703 25.1148C22.502 24.8138 22.2164 24.5791 21.8822 24.4406C21.548 24.302 21.1802 24.2657 20.8254 24.3364C20.4706 24.407 20.1447 24.5814 19.889 24.8374C19.6332 25.0935 19.459 25.4197 19.3884 25.7748C19.3178 26.1299 19.3541 26.4981 19.4925 26.8326C19.6309 27.1671 19.8653 27.453 20.1661 27.6542C20.4669 27.8554 20.8205 27.9628 21.1822 27.9628C21.6644 27.9533 22.1241 27.7574 22.4651 27.4161C22.8061 27.0748 23.0018 26.6146 23.0112 26.132ZM20.7084 26.132C20.7084 26.0382 20.7362 25.9464 20.7882 25.8684C20.8403 25.7904 20.9143 25.7296 21.0009 25.6937C21.0875 25.6578 21.1828 25.6484 21.2747 25.6667C21.3666 25.685 21.4511 25.7302 21.5173 25.7966C21.5836 25.8629 21.6287 25.9474 21.647 26.0394C21.6653 26.1315 21.6559 26.2268 21.6201 26.3135C21.5842 26.4002 21.5234 26.4743 21.4455 26.5264C21.3676 26.5785 21.276 26.6063 21.1822 26.6063C21.0592 26.5982 20.9434 26.5456 20.8562 26.4583C20.7691 26.3711 20.7165 26.2551 20.7084 26.132ZM31.4786 16.3675C31.3632 16.3332 31.2411 16.3276 31.1231 16.3511C31.005 16.3747 30.8944 16.4267 30.801 16.5028C30.7028 16.5821 30.6354 16.6934 30.6108 16.8174C30.5861 16.9413 30.6056 17.07 30.6659 17.181L31.2073 18.8079L30.191 20.1643C30.1133 20.2708 30.066 20.3965 30.0541 20.5279C30.0422 20.6592 30.0662 20.7914 30.1235 20.9101C30.2671 21.1191 30.4855 21.2647 30.7335 21.3169H32.4224L33.3711 22.7409C33.4304 22.829 33.5113 22.9003 33.6062 22.9479C33.7011 22.9954 33.8066 23.0177 33.9126 23.0124H33.9801C34.1067 22.9947 34.2253 22.9403 34.3215 22.8561C34.4177 22.7718 34.4872 22.6613 34.5216 22.538L35.063 20.9111L36.6883 20.4368C36.8114 20.4024 36.9218 20.3328 37.006 20.2365C37.0902 20.1403 37.1445 20.0215 37.1622 19.8948C37.1909 19.7676 37.1803 19.6346 37.1319 19.5135C37.0834 19.3924 36.9994 19.2889 36.891 19.2166L35.5389 18.1983L35.6064 16.5077C35.6071 16.3854 35.5763 16.2649 35.517 16.158C35.4576 16.051 35.3718 15.9612 35.2677 15.8971C35.1484 15.8423 35.0168 15.8198 34.8861 15.8316C34.7554 15.8435 34.6301 15.8894 34.5225 15.9648L33.1675 16.9821L31.4786 16.3675ZM33.5788 18.1983L34.1202 17.7916V18.4698C34.1149 18.5758 34.1371 18.6815 34.1847 18.7764C34.2322 18.8714 34.3034 18.9524 34.3914 19.0117L34.9328 19.4185L34.2553 19.6174C34.1416 19.6478 34.038 19.7076 33.9548 19.7909C33.8716 19.8742 33.8118 19.9779 33.7814 20.0917L33.5827 20.7699L33.1764 20.2279C33.1171 20.1399 33.0362 20.0686 32.9413 20.021C32.8465 19.9734 32.7409 19.9512 32.635 19.9565H31.9524L32.3598 19.4205C32.4283 19.3363 32.4762 19.2372 32.4997 19.1312C32.5231 19.0252 32.5215 18.9151 32.4949 18.8099L32.2962 18.1317L32.9737 18.3305C33.0776 18.3606 33.1873 18.3643 33.293 18.3412C33.3986 18.3181 33.4969 18.269 33.5788 18.1983Z" fill="#2E2E2E"/>
<path d="M32.6612 6.14254C32.8928 5.83273 33.0433 5.47966 33.0983 5.11693C33.1534 4.75421 33.1111 4.39388 32.9756 4.07023C32.8401 3.74657 32.6158 3.47037 32.3241 3.26788C32.0324 3.06539 31.683 2.94336 31.3091 2.91339C30.5006 2.84749 29.5906 3.82341 29.0843 4.4226C28.8284 3.76196 28.3296 2.67137 27.5202 2.60278C27.1465 2.57182 26.7605 2.63396 26.3989 2.78329C26.0373 2.93262 25.7122 3.16417 25.4546 3.45589C25.197 3.74761 25.0153 4.08979 24.927 4.44984C24.8387 4.80989 24.8467 5.17582 24.9501 5.51279L24.9554 5.52893C25.0253 5.75154 25.1354 5.95733 25.2811 6.13771L27.8085 10.8548L32.0986 6.69275C32.3099 6.54139 32.4967 6.35976 32.6511 6.15545L32.6644 6.14231L32.6612 6.14254Z" fill="#2E2E2E"/>
</svg>
